<svg xmlns="http://www.w3.org/2000/svg" viewBox="0 0 950.13 557.77"><defs><style>.cls-1{fill:#fff;}.cls-2{fill:#7f1523;}.cls-3{fill:#69798e;}.cls-4{fill:none;stroke:#69798e;stroke-miterlimit:10;stroke-width:2px;}.cls-5{fill:#7f1525;}.cls-6{fill:#6a7a8d;}</style></defs><g id="bg"><rect class="cls-1" x="-17.37" y="-11.87" width="5144.24" height="581.52"/></g><g id="Layer_1" data-name="Layer 1"><path class="cls-2" d="M482.37,53.58c6,0,12.57,2,16.62,5.06v4.89a26.23,26.23,0,0,0-16.62-5.65c-12.23,0-21.09,8.86-21.09,22.1s8.86,22.11,21.09,22.11A26.17,26.17,0,0,0,499,96.43v4.9c-4.05,3-10.63,5.06-16.62,5.06-14.09,0-25.9-10-25.9-26.41S468.28,53.58,482.37,53.58Z"/><path class="cls-2" d="M525.74,67.75c8.52,0,14.93,5.74,14.93,13.92a30.07,30.07,0,0,1-.34,3.71H513.25c-.67,8.19,3.46,16.87,15.36,16.87a20.33,20.33,0,0,0,10.88-3.79l1.52,2.78c-3.12,2.87-8.44,5-14.6,5-10.12,0-17.63-8.27-17.63-19.49C508.78,75,517.3,67.75,525.74,67.75Zm.25,3.8c-5.57,0-11,3.29-12.4,10.37h22.69C537,76.1,532.66,71.55,526,71.55Z"/><path class="cls-2" d="M552.57,69.18l3.71-.76.51,7.43a18.56,18.56,0,0,1,14.67-8c9.71,0,13.16,6.75,13.16,14.94v22.52h-4.47V83c0-8-3.88-11-9.19-11-5.74,0-13.92,5-13.92,11.39v21.85h-4.47Z"/><path class="cls-2" d="M600.07,94.24V72.64H594.5V68.85h5.57v-9l4.47-.93v10h9.19v3.79h-9.19V95.25c0,4.22,1,7,4.21,7a10.09,10.09,0,0,0,5.74-1.68l.85,2.53a9.94,9.94,0,0,1-7.6,3C601.84,106.14,600.07,102.34,600.07,94.24Z"/><path class="cls-2" d="M640.14,67.75c8.52,0,14.93,5.74,14.93,13.92a32,32,0,0,1-.33,3.71H627.65c-.67,8.19,3.46,16.87,15.36,16.87a20.33,20.33,0,0,0,10.88-3.79l1.52,2.78c-3.12,2.87-8.44,5-14.6,5-10.12,0-17.63-8.27-17.63-19.49C623.18,75,631.7,67.75,640.14,67.75Zm.25,3.8c-5.56,0-11,3.29-12.4,10.37h22.7C651.44,76.1,647.06,71.55,640.39,71.55Z"/><path class="cls-2" d="M667,69.18l3.71-.76.51,7.43c2.61-4.14,8.43-8,14-8v5.23c-6.66-1-13.75,4-13.75,10.47v21.76H667Z"/><path class="cls-2" d="M708.31,72.64V68.85h7.42V67.67c0-10.3,3.63-14.26,10.72-14.26a12.1,12.1,0,0,1,3.63.59v3.37a19.68,19.68,0,0,0-3-.33c-5,0-6.92,2.19-6.92,10.88v.93h9.88v3.79H720.2v32.65h-4.47V72.64Z"/><path class="cls-2" d="M755.22,67.67a19.4,19.4,0,1,1-19.41,19.4A19.19,19.19,0,0,1,755.22,67.67Zm0,4c-8.69,0-14.94,6.42-14.94,15.36s6.25,15.35,14.94,15.35S770.15,96,770.15,87.07,763.91,71.71,755.22,71.71Z"/><path class="cls-2" d="M785.84,69.18l3.71-.76.51,7.43c2.62-4.14,8.44-8,14-8v5.23c-6.67-1-13.76,4-13.76,10.47v21.76h-4.47Z"/><path class="cls-2" d="M459.34,205.79h-4.81l20.92-50.62h3.8l20.92,50.62h-5.06L489,191.11H465.33Zm17.8-43.7L467,187h20.33Z"/><path class="cls-2" d="M513.33,168.92l.43,6.5c4.22-5.48,9.62-7.09,14.93-7.09,9.53,0,17.21,7.93,17.21,19.24s-7.68,19.24-17.21,19.24c-5.31,0-10.63-1.69-14.6-6.59v22h-4.47V169.68Zm14.52,3.38a16.06,16.06,0,0,0-13.76,7.93v14.68a16.06,16.06,0,0,0,13.76,7.93c7.08,0,13.58-5.23,13.58-15.27S534.93,172.3,527.85,172.3Z"/><path class="cls-2" d="M561.26,168.92l.42,6.5c4.22-5.48,9.62-7.09,14.93-7.09,9.53,0,17.21,7.93,17.21,19.24s-7.68,19.24-17.21,19.24c-5.31,0-10.63-1.69-14.59-6.59v22h-4.48V169.68Zm14.51,3.38A16,16,0,0,0,562,180.23v14.68a16,16,0,0,0,13.75,7.93c7.08,0,13.58-5.23,13.58-15.27S582.85,172.3,575.77,172.3Z"/><path class="cls-2" d="M611,206.47c-3.29,0-5.49-1.77-5.49-6.41V154.75l4.48-.84v46.23c0,2.11.75,3,2.27,3a4.3,4.3,0,0,0,2.2-.59v2.7A5.18,5.18,0,0,1,611,206.47Z"/><path class="cls-2" d="M627.06,155.09a3,3,0,1,1,0,6.07,3,3,0,1,1,0-6.07Zm2.28,13.75v36.95h-4.47V169.68Z"/><path class="cls-2" d="M658,168.25c8.53,0,14.94,5.74,14.94,13.92a30.07,30.07,0,0,1-.34,3.71H645.54c-.68,8.19,3.46,16.88,15.35,16.88a20.37,20.37,0,0,0,10.89-3.8l1.51,2.78c-3.12,2.87-8.43,5-14.59,5-10.12,0-17.63-8.27-17.63-19.49C641.07,175.51,649.59,168.25,658,168.25Zm.26,3.8c-5.57,0-11,3.29-12.4,10.37h22.69C669.33,176.6,664.94,172.05,658.28,172.05Z"/><path class="cls-2" d="M721.3,203.18a4.26,4.26,0,0,0,2.19-.59v2.7a5.18,5.18,0,0,1-3.46,1.18c-3.2,0-5.48-1.69-5.48-6.33-4.13,5.15-9.45,6.67-14.59,6.67-9.54,0-17.22-7.93-17.22-19.24s7.68-19.24,17.22-19.24c5.31,0,10.62,1.69,14.59,6.59V154.75l4.47-.84v46.23C719,202.25,719.78,203.18,721.3,203.18Zm-20.5-.34a16,16,0,0,0,13.75-7.93V180.23a16,16,0,0,0-13.75-7.93c-7.09,0-13.58,5.23-13.58,15.27S693.71,202.84,700.8,202.84Z"/><path class="cls-2" d="M474.61,255.67c10.88,0,15.61,7.34,15.61,15.27s-4.73,15.27-15.61,15.27H463.56v20.08h-4.64V255.67Zm11,15.27c0-5.23-2.62-11.13-11-11.13H463.56v22.27h11.05C483,282.08,485.58,276.26,485.58,270.94Z"/><path class="cls-2" d="M527.68,303.68a4.17,4.17,0,0,0,2.19-.59v2.7a5.18,5.18,0,0,1-3.46,1.18c-3.29,0-5.48-1.77-5.48-6.41V300c-6.08,5.82-11.64,7.25-15.69,7.25-4.81,0-8.69-3.29-8.69-8.6,0-8.61,11.47-13.16,24.38-14.43v-2.87c0-6-2.53-8.44-8.69-8.44-3.54,0-9.28,1.95-13.16,4.22v-4.3c3.12-1.69,9.7-4.05,13.83-4.05,7.26,0,12.49,2.87,12.49,12.57v19.32C525.4,302.75,526.16,303.68,527.68,303.68ZM520.93,288c-12.32,1-20.17,5.4-20.17,10.46,0,4,3,5,6.42,5,2.19,0,8.35-2,13.75-7.09Z"/><path class="cls-2" d="M542.11,295.24v-21.6h-5.57v-3.79h5.57v-9l4.47-.93v10h9.19v3.79h-9.19v22.61c0,4.22,1,7,4.21,7a10.08,10.08,0,0,0,5.74-1.69l.85,2.53a9.94,9.94,0,0,1-7.6,3C543.88,307.14,542.11,303.34,542.11,295.24Z"/><path class="cls-2" d="M571.72,254.41v22a18.6,18.6,0,0,1,14.42-7.59c9.71,0,13.17,6.74,13.17,14.93v22.52h-4.48V284c0-8-3.88-11-9.19-11-5.74,0-13.92,5-13.92,11.39v21.85h-4.47v-51Z"/><path class="cls-2" d="M629.85,268.67a19.4,19.4,0,1,1-19.41,19.4A19.19,19.19,0,0,1,629.85,268.67Zm0,4.05c-8.69,0-14.93,6.41-14.93,15.35s6.24,15.36,14.93,15.36,14.93-6.42,14.93-15.36S638.54,272.72,629.85,272.72Z"/><path class="cls-2" d="M661.32,308.66l2.44,1c-1.26.59-3,2.11-3,4,0,3.88,5.15,6,12.32,6,8.6,0,12.32-3.45,12.32-7.25,0-4.14-3.29-6.33-13.42-6.33-6.92,0-12.74-1.35-12.74-7,0-2,1.44-5.15,6.5-6.16a12.07,12.07,0,0,1-7.17-11.22c0-7.34,5.9-12.82,14.26-12.82,4,0,5.73,1,9.28,1h8.35v3.79h-6.92c2.36,2.54,3.46,4.56,3.46,8,0,7-5.32,12.23-12.74,12.74-9.11.59-11,1.77-11,4.05,0,1.6,1.52,3.37,10.3,3.46,12.4.08,16.19,4.38,16.19,10.12,0,6.67-6.66,11.47-16.7,11.47-10.38,0-16.45-4.13-16.45-8.6A6.63,6.63,0,0,1,661.32,308.66ZM672.88,272c-6.16,0-10,4-10,9.62s3.88,9.62,10,9.62,10-4.14,10-9.62S679,272,672.88,272Z"/><path class="cls-2" d="M715.48,268.75c8.52,0,14.94,5.74,14.94,13.92a30.07,30.07,0,0,1-.34,3.71H703c-.68,8.19,3.46,16.88,15.35,16.88a20.31,20.31,0,0,0,10.88-3.8l1.52,2.78c-3.12,2.87-8.43,5-14.59,5-10.13,0-17.63-8.27-17.63-19.49C698.53,276,707.05,268.75,715.48,268.75Zm.26,3.8c-5.57,0-11,3.29-12.41,10.37H726C726.79,277.1,722.4,272.55,715.74,272.55Z"/><path class="cls-2" d="M742.31,270.19l3.71-.76.51,7.42a18.6,18.6,0,0,1,14.68-8c9.7,0,13.16,6.74,13.16,14.93v22.52H769.9V284c0-8-3.88-11-9.2-11-5.73,0-13.92,5-13.92,11.39v21.85h-4.47Z"/><path class="cls-2" d="M487.6,356.18v4.13h-24v17.8h19.82v4.13H463.56v20.42h24v4.14H458.92V356.18Z"/><path class="cls-2" d="M500.51,369.93l.42,6.49c4.22-5.48,9.62-7.08,14.94-7.08,9.53,0,17.21,7.93,17.21,19.23s-7.68,19.24-17.21,19.24c-5.32,0-10.63-1.69-14.6-6.58v22H496.8V370.69ZM515,373.3a16.06,16.06,0,0,0-13.75,7.93v14.68A16.06,16.06,0,0,0,515,403.84c7.09,0,13.59-5.23,13.59-15.27S522.11,373.3,515,373.3Z"/><path class="cls-2" d="M544,356.09a3,3,0,1,1,0,6.07,3,3,0,1,1,0-6.07Zm2.28,13.75v37h-4.47V370.69Z"/><path class="cls-2" d="M593.48,404.18a4.21,4.21,0,0,0,2.2-.59v2.7a5.18,5.18,0,0,1-3.46,1.18c-3.21,0-5.49-1.69-5.49-6.33-4.13,5.15-9.44,6.67-14.59,6.67-9.53,0-17.21-7.93-17.21-19.24s7.68-19.23,17.21-19.23c5.32,0,10.63,1.68,14.59,6.58V355.75l4.48-.84v46.23C591.21,403.25,592,404.18,593.48,404.18Zm-20.5-.34a16,16,0,0,0,13.75-7.93V381.23A16,16,0,0,0,573,373.3c-7.08,0-13.58,5.23-13.58,15.27S565.9,403.84,573,403.84Z"/><path class="cls-2" d="M618.12,369.25c8.52,0,14.93,5.74,14.93,13.92a32.38,32.38,0,0,1-.33,3.72H605.63c-.67,8.18,3.46,16.87,15.36,16.87a20.33,20.33,0,0,0,10.88-3.8l1.52,2.78c-3.12,2.87-8.44,5-14.6,5-10.12,0-17.63-8.26-17.63-19.49C601.16,376.51,609.68,369.25,618.12,369.25Zm.25,3.8c-5.56,0-11,3.29-12.4,10.38h22.7C629.42,377.6,625,373.05,618.37,373.05Z"/><path class="cls-2" d="M659.46,373.56c-5.31,0-13,5-13,11.38V406.8H642V370.69l3.71-.76.51,7.42c2.7-4.13,8-8,13.75-8,6.91,0,10.29,4,11.39,8.1,3.62-5,8.6-8.1,14.34-8.1,9.28,0,12.23,6.75,12.23,14.93V406.8h-4.47V384.52c0-8-3.37-11-8.27-11-5.31,0-13,5-13,11.38V406.8h-4.47V384.52C667.73,376.51,664.35,373.56,659.46,373.56Z"/><path class="cls-2" d="M710.84,356.09a3,3,0,1,1,0,6.07,3,3,0,1,1,0-6.07Zm2.28,13.75v37h-4.47V370.69Z"/><path class="cls-2" d="M740.79,369.17a19.41,19.41,0,1,1-19.4,19.4A19.19,19.19,0,0,1,740.79,369.17Zm0,4.05c-8.69,0-14.93,6.41-14.93,15.35s6.24,15.36,14.93,15.36,14.93-6.42,14.93-15.36S749.48,373.22,740.79,373.22Z"/><path class="cls-2" d="M774,407.47c-3.29,0-5.49-1.77-5.49-6.41V355.75l4.48-.84v46.23c0,2.11.76,3,2.27,3a4.21,4.21,0,0,0,2.2-.59v2.7A5.18,5.18,0,0,1,774,407.47Z"/><path class="cls-2" d="M801.79,369.17a19.41,19.41,0,1,1-19.4,19.4A19.18,19.18,0,0,1,801.79,369.17Zm0,4.05c-8.69,0-14.93,6.41-14.93,15.35s6.24,15.36,14.93,15.36,14.93-6.42,14.93-15.36S810.48,373.22,801.79,373.22Z"/><path class="cls-2" d="M830.31,409.16l2.44,1c-1.26.59-3,2.11-3,4,0,3.88,5.15,6,12.32,6,8.6,0,12.32-3.46,12.32-7.26,0-4.14-3.3-6.33-13.42-6.33-6.92,0-12.74-1.35-12.74-7,0-2,1.44-5.15,6.5-6.16a12.07,12.07,0,0,1-7.17-11.22c0-7.34,5.9-12.82,14.25-12.82,4,0,5.74,1,9.28,1h8.36v3.8h-6.92c2.36,2.53,3.46,4.55,3.46,8,0,7-5.32,12.23-12.74,12.74-9.11.59-11,1.77-11,4.05,0,1.6,1.52,3.37,10.29,3.46,12.41.08,16.2,4.39,16.2,10.12,0,6.67-6.66,11.48-16.7,11.48-10.38,0-16.45-4.14-16.45-8.61A6.63,6.63,0,0,1,830.31,409.16Zm11.55-36.62c-6.15,0-10,4-10,9.62s3.88,9.62,10,9.62,10-4.14,10-9.62S847.94,372.54,841.86,372.54Z"/><path class="cls-2" d="M866.08,419.53a4.43,4.43,0,0,0,2.53.76c3.63,0,5.23-3.54,9-13.66l-14.85-36.28h4.72l12.57,31.13,12.49-31.13H897l-17.89,43.53c-2.87,7-5.31,10.13-9.45,10.13a7.84,7.84,0,0,1-3.54-1Z"/><circle class="cls-3" cx="325.24" cy="85.82" r="8.03"/><circle class="cls-3" cx="331.24" cy="144.14" r="8.03"/><circle class="cls-3" cx="372.48" cy="124.7" r="8.03"/><circle class="cls-3" cx="396.71" cy="163.58" r="8.03"/><circle class="cls-3" cx="185.05" cy="144.14" r="8.03"/><path class="cls-4" d="M331.24,144.14H299.81a19.44,19.44,0,0,1,0-38.88"/><path class="cls-4" d="M246.48,144.14H185.05"/><path class="cls-4" d="M325.24,85.82h-6a19.44,19.44,0,1,0,0,38.88H373.2"/><path class="cls-4" d="M396.14,163.58H265.92a19.44,19.44,0,0,1,0-38.88h13.49"/><circle class="cls-3" cx="252.63" cy="352.19" r="8.03"/><circle class="cls-3" cx="303.55" cy="317.28" r="8.03"/><circle class="cls-3" cx="283.63" cy="367.75" r="8.03"/><polyline class="cls-4" points="209.33 351.47 252.63 352.19 283.63 367.75"/><line class="cls-4" x1="252.63" y1="352.19" x2="303.55" y2="317.28"/><circle class="cls-3" cx="79.96" cy="331.27" r="8.03"/><circle class="cls-3" cx="61.4" cy="283.33" r="8.03"/><circle class="cls-3" cx="108.89" cy="369.55" r="8.03"/><polyline class="cls-4" points="61.4 283.33 79.96 331.27 108.89 369.55"/><circle class="cls-3" cx="154.03" cy="323.07" r="8.03"/><circle class="cls-3" cx="211.48" cy="351.23" r="8.03"/><circle class="cls-3" cx="163.88" cy="373.63" r="16.06"/><line class="cls-4" x1="108.89" y1="369.55" x2="163.88" y2="373.63"/><line class="cls-4" x1="163.88" y1="373.63" x2="154.03" y2="323.07"/><line class="cls-4" x1="211.48" y1="351.23" x2="163.88" y2="373.63"/><circle class="cls-3" cx="62.56" cy="382.88" r="8.03"/><line class="cls-4" x1="109.81" y1="368.85" x2="62.56" y2="382.88"/><circle class="cls-3" cx="135.85" cy="409.75" r="8.03"/><line class="cls-4" x1="163.88" y1="373.63" x2="135.85" y2="409.75"/><path class="cls-3" d="M93.14,170.21a21.17,21.17,0,0,0,1.92-6.51,22.88,22.88,0,0,0-.32-6.25A35.89,35.89,0,0,0,93,151.29c-.38-1-.8-2.07-1.22-3.1l-1.23-3.07c-.83-2.05-1.65-4.11-2.32-6.19a27.06,27.06,0,0,1-1.37-6.22A16,16,0,0,1,90.5,120.5c1.26-1.48,2.43-3,3.77-4.46A13.84,13.84,0,0,0,92.2,119a16.36,16.36,0,0,0-2,9.18,46.2,46.2,0,0,0,3.28,12.52,63,63,0,0,1,3.83,12.45,19.87,19.87,0,0,1,.11,6.25c-.08.53-.19,1-.32,1.57a16,16,0,0,1-.41,1.62,18.15,18.15,0,0,1-1.38,3.27L94.19,168Z"/><path class="cls-5" d="M52.46,198.94a23.23,23.23,0,0,1,3.09-7.34,17.23,17.23,0,0,1,1-1.45,16.38,16.38,0,0,1,1.19-1.29,20.87,20.87,0,0,1,2.62-2.21,28.64,28.64,0,0,1,5.84-3.2,65.76,65.76,0,0,1,6.43-2.06c2.15-.58,4.27-1.1,6.3-1.68a48.41,48.41,0,0,0,5.82-1.94,17,17,0,0,0,4.8-3,13.4,13.4,0,0,0,3.55-4.61l1-2.22,1.16-2.17a16.17,16.17,0,0,1-1.69,2.51,12.5,12.5,0,0,1-2,2,17.5,17.5,0,0,1-5,2.75c-3.57,1.46-7.84,2.23-12.22,3.25a38.73,38.73,0,0,0-12.43,4.87,19.32,19.32,0,0,0-5,4.82,21.54,21.54,0,0,0-1.94,3.27,22.12,22.12,0,0,0-1.34,4Z"/><path class="cls-3" d="M139.8,113.53a18,18,0,0,0,2.64-2.38,21.81,21.81,0,0,0,2.05-2.55,20.17,20.17,0,0,0,2.56-5.72c1.24-3.95,1.51-8.44,1.88-12.89s.85-8.81,2.36-12.73A17.93,17.93,0,0,1,154.54,72a17.31,17.31,0,0,1,2.44-2.2,16.63,16.63,0,0,1,3.13-1.71l5.37-2.28a17.08,17.08,0,0,0-5.67,3.77,15.12,15.12,0,0,0-2,2.43,20.19,20.19,0,0,0-1.44,2.77,44.31,44.31,0,0,0-2.76,12.64c-.26,2.22-.49,4.44-.84,6.58-.17,1.08-.39,2.11-.62,3.16a28.79,28.79,0,0,1-.82,3.1,19.64,19.64,0,0,1-2.78,5.57,17.48,17.48,0,0,1-4.83,4.79C142.41,111.54,141.12,112.56,139.8,113.53Z"/><path class="cls-3" d="M207.18,84.28a19.3,19.3,0,0,0,6.4-2.26,19.74,19.74,0,0,0,4.9-3.88,45.27,45.27,0,0,0,4-5c1.23-1.8,2.4-3.7,3.58-5.61s2.37-3.76,3.67-5.48A31.11,31.11,0,0,1,234,57.3a18,18,0,0,1,2.5-1.88,15.79,15.79,0,0,1,2.81-1.34,16.67,16.67,0,0,1,6.75-1l5.81.52a16.79,16.79,0,0,0-6.77.68,18.05,18.05,0,0,0-5.41,3.11,28,28,0,0,0-4.4,4.56c-1.34,1.73-2.6,3.57-3.84,5.42s-2.46,3.68-3.75,5.41a38.12,38.12,0,0,1-4.13,5A19.51,19.51,0,0,1,212,83.49Z"/><path class="cls-3" d="M102.16,154a17.56,17.56,0,0,0,2.67-6.24,20.28,20.28,0,0,0,.47-6.21,68.06,68.06,0,0,0-2.72-12.75c-1.24-4.33-2.27-8.57-2.19-12.75a16.14,16.14,0,0,1,5-11.73l4.31-3.94a15.9,15.9,0,0,0-4.06,5.47A18.15,18.15,0,0,0,104.3,112a27.24,27.24,0,0,0,0,3.13c.08,1.06.23,2.14.4,3.22.36,2.15.87,4.32,1.38,6.47,1,4.28,2.2,8.66,2.32,12.82a24.81,24.81,0,0,1-.12,3.11,17.41,17.41,0,0,1-.52,3.11,16.25,16.25,0,0,1-1.12,3.07,30.75,30.75,0,0,1-1.76,3.08Z"/><path class="cls-5" d="M58.43,177.8A25.12,25.12,0,0,1,60.14,174a15.74,15.74,0,0,1,2.17-3.12,21.14,21.14,0,0,1,5.38-4.36A26,26,0,0,1,73.94,164a60.11,60.11,0,0,1,6.57-1.31c2.15-.35,4.37-.59,6.49-.9a42.07,42.07,0,0,0,6-1.26,23.6,23.6,0,0,0,2.67-1,15.6,15.6,0,0,0,2.49-1.33,13.85,13.85,0,0,0,4-4.2l2.73-4.08a13.09,13.09,0,0,1-4.21,4,17.14,17.14,0,0,1-5.18,2.19,48.22,48.22,0,0,1-6,1c-2.08.26-4.26.46-6.47.72A61.1,61.1,0,0,0,76.32,159a28.75,28.75,0,0,0-6.27,2.28c-4.07,2-7.45,5.47-9.67,11Z"/><path class="cls-3" d="M155.22,103.25a19.47,19.47,0,0,0,8.48-9.66,37.93,37.93,0,0,0,2-6.14c.54-2.09,1-4.27,1.42-6.45s.91-4.36,1.5-6.47a30.32,30.32,0,0,1,2.35-5.88,17.17,17.17,0,0,1,3.82-4.92,17.43,17.43,0,0,1,6-3.22c1.84-.63,3.75-1,5.62-1.57a15,15,0,0,0-6.09,3,18.06,18.06,0,0,0-4,4.74c-2.1,3.59-3.18,8-4.23,12.24-.53,2.12-1,4.33-1.6,6.44a36.33,36.33,0,0,1-2.17,6,22.19,22.19,0,0,1-3.39,5.28,16.93,16.93,0,0,1-2.41,2.19,20.06,20.06,0,0,1-3,2C158.09,101.67,156.63,102.41,155.22,103.25Z"/><path class="cls-3" d="M225.57,82.21a21.45,21.45,0,0,0,6.63-1.46,23.59,23.59,0,0,0,5.32-3.3,35.87,35.87,0,0,0,4.54-4.52c.72-.83,1.43-1.69,2.13-2.56l2.09-2.56c2.78-3.4,5.64-6.9,9.08-9.24A18.16,18.16,0,0,1,261,56a16.22,16.22,0,0,1,3.25-.47,19.35,19.35,0,0,1,3.55.34L273.53,57a17.4,17.4,0,0,0-6.82,0,16.46,16.46,0,0,0-3,.9,19.83,19.83,0,0,0-2.75,1.5,32.23,32.23,0,0,0-4.91,4c-1.53,1.52-3,3.15-4.45,4.88s-2.89,3.42-4.37,5a43.63,43.63,0,0,1-4.69,4.35,19.52,19.52,0,0,1-5.42,3.11,27.54,27.54,0,0,1-3.14.9,18,18,0,0,1-3.53.37l-2.46,0Z"/><path class="cls-5" d="M90.5,120.5a25.53,25.53,0,0,1,2.92-3,21.19,21.19,0,0,1,3.17-2.13,19.43,19.43,0,0,1,6.54-2.22,38.24,38.24,0,0,1,13.32,1c4.39,1,8.55,2.07,12.44,2.32a17.63,17.63,0,0,0,5.65-.37,14.1,14.1,0,0,0,2.65-1,13,13,0,0,0,2.61-1.54c1.32-1,2.61-2,4-2.92a13.82,13.82,0,0,1-5.32,2.37,15.28,15.28,0,0,1-2.8.29,22.77,22.77,0,0,1-2.85-.08,42,42,0,0,1-6-1.11l-3.16-.82-3.18-.79a62.18,62.18,0,0,0-6.58-1.28c-1.11-.14-2.24-.24-3.37-.27a21.8,21.8,0,0,0-3.33.18,20.91,20.91,0,0,0-6.65,2,22.5,22.5,0,0,0-6.23,5C92.93,117.46,91.76,119,90.5,120.5Z"/><path class="cls-5" d="M160.11,68.08a19.89,19.89,0,0,1,14.6-.83c4.28,1.46,8,4.16,11.43,6.89s6.68,5.8,10,7.74a18.75,18.75,0,0,0,5.2,2.26,15.25,15.25,0,0,0,5.82.14l4.85-.79c-4.2.69-7.65-.65-10.93-2.69a41.44,41.44,0,0,1-4.86-3.75l-4.91-4.29c-3.36-2.88-7-5.78-11.21-7.26a20,20,0,0,0-6.82-1.27,23.72,23.72,0,0,0-7.82,1.57Z"/><path class="cls-5" d="M105.43,104.36a23.1,23.1,0,0,1,6.66-4.38,19.39,19.39,0,0,1,6.8-1.39,26.08,26.08,0,0,1,6.64.65,60.83,60.83,0,0,1,6.47,1.87l6.15,2.12a42.4,42.4,0,0,0,5.93,1.65,19.81,19.81,0,0,0,5.63.26,13,13,0,0,0,5.51-1.89c1.41-.84,2.87-1.58,4.3-2.38a15.45,15.45,0,0,1-11.21,1.24,51.2,51.2,0,0,1-5.84-1.8c-2-.72-4-1.56-6.11-2.35-1.05-.39-2.11-.78-3.18-1.14s-2.13-.64-3.21-.91a29.49,29.49,0,0,0-6.64-.88,18.58,18.58,0,0,0-6.81,1.22,19.62,19.62,0,0,0-6.78,4.17Z"/><path class="cls-5" d="M180.75,60.51a18.14,18.14,0,0,1,4.12-.83,22.18,22.18,0,0,1,3.81,0,18.16,18.16,0,0,1,6.68,1.83,29,29,0,0,1,5.63,3.6,57.81,57.81,0,0,1,4.9,4.62,102.38,102.38,0,0,0,9,8.86,16.88,16.88,0,0,0,4.89,2.78,13.49,13.49,0,0,0,5.76.89l2.45-.16,2.46,0a17.07,17.07,0,0,1-3-.26,12.78,12.78,0,0,1-2.71-.76,17.74,17.74,0,0,1-4.81-3c-3-2.42-5.74-5.79-8.74-9.13a38.87,38.87,0,0,0-10.27-8.54,20.22,20.22,0,0,0-6.61-2,19.18,19.18,0,0,0-3.81-.11,25.19,25.19,0,0,0-4.14.75C184.5,59.46,182.59,59.88,180.75,60.51Z"/><path class="cls-3" d="M374.8,306.78a21.22,21.22,0,0,0-1.92,6.52,23.28,23.28,0,0,0,.32,6.25,36.82,36.82,0,0,0,1.76,6.16c.38,1,.8,2.06,1.22,3.1l1.23,3.06c.83,2.05,1.65,4.11,2.32,6.19a27.06,27.06,0,0,1,1.37,6.22,15.91,15.91,0,0,1-3.66,12.21c-1.26,1.49-2.43,3.05-3.76,4.46a14.05,14.05,0,0,0,2.07-2.92,17,17,0,0,0,1.28-3,16.13,16.13,0,0,0,.68-6.17,46.16,46.16,0,0,0-3.29-12.51,63,63,0,0,1-3.82-12.46,19.57,19.57,0,0,1-.12-6.25c.08-.52.2-1,.32-1.57s.25-1.07.41-1.61a19,19,0,0,1,1.38-3.28l1.16-2.16Z"/><path class="cls-5" d="M415.48,278.05a23.52,23.52,0,0,1-3.08,7.35c-.33.5-.68,1-1,1.45s-.79.88-1.2,1.29a22.46,22.46,0,0,1-2.61,2.21,28.45,28.45,0,0,1-5.85,3.19,63.16,63.16,0,0,1-6.43,2.06c-2.15.58-4.27,1.11-6.29,1.68a50.42,50.42,0,0,0-5.83,2,17.38,17.38,0,0,0-4.8,2.94,13.62,13.62,0,0,0-3.55,4.61L373.75,309l-1.16,2.16a16.66,16.66,0,0,1,1.69-2.51,12.5,12.5,0,0,1,2-2,17.75,17.75,0,0,1,5-2.75c3.57-1.46,7.84-2.23,12.22-3.25a38.48,38.48,0,0,0,12.43-4.86,19.33,19.33,0,0,0,4.95-4.82,22.15,22.15,0,0,0,1.94-3.28,21.26,21.26,0,0,0,1.34-4Z"/><path class="cls-3" d="M328.14,363.46a18.59,18.59,0,0,0-2.64,2.39,22.47,22.47,0,0,0-2,2.54,20,20,0,0,0-2.56,5.73c-1.24,3.95-1.52,8.44-1.88,12.89s-.86,8.8-2.37,12.73A18,18,0,0,1,313.4,405a16.69,16.69,0,0,1-2.43,2.21,17.66,17.66,0,0,1-3.14,1.71l-5.37,2.28a17.25,17.25,0,0,0,5.68-3.78,14.46,14.46,0,0,0,1.95-2.42,19.79,19.79,0,0,0,1.44-2.78,44.24,44.24,0,0,0,2.77-12.64c.25-2.22.49-4.43.84-6.57.17-1.08.38-2.12.61-3.17a30.43,30.43,0,0,1,.82-3.09,19.7,19.7,0,0,1,2.78-5.58,17.48,17.48,0,0,1,4.83-4.79C325.54,365.46,326.82,364.43,328.14,363.46Z"/><path class="cls-3" d="M260.77,392.71a19.28,19.28,0,0,0-6.41,2.26,19.51,19.51,0,0,0-4.89,3.88,44.55,44.55,0,0,0-4,5c-1.23,1.79-2.4,3.7-3.58,5.6s-2.37,3.76-3.67,5.49A31.11,31.11,0,0,1,234,419.7a18.9,18.9,0,0,1-2.49,1.88,16.52,16.52,0,0,1-9.56,2.31l-5.82-.51a16.79,16.79,0,0,0,6.77-.68,18.27,18.27,0,0,0,5.41-3.11,28.45,28.45,0,0,0,4.4-4.56c1.35-1.73,2.6-3.58,3.84-5.42s2.47-3.69,3.75-5.42a37.3,37.3,0,0,1,4.14-4.95,19.49,19.49,0,0,1,11.49-5.74Z"/><path class="cls-3" d="M365.79,323a17.25,17.25,0,0,0-2.67,6.25,19.93,19.93,0,0,0-.48,6.21,68,68,0,0,0,2.72,12.74c1.24,4.34,2.27,8.57,2.19,12.75a16.15,16.15,0,0,1-5,11.74l-4.3,3.93a15.84,15.84,0,0,0,4.05-5.46,18,18,0,0,0,1.38-6.07,25,25,0,0,0,0-3.12c-.07-1.06-.22-2.15-.4-3.22-.36-2.16-.86-4.33-1.38-6.48-1-4.27-2.2-8.66-2.31-12.82a22.83,22.83,0,0,1,.11-3.1,18.48,18.48,0,0,1,.52-3.12,16.62,16.62,0,0,1,1.12-3.06,32,32,0,0,1,1.76-3.09Z"/><path class="cls-5" d="M409.52,299.2A25.55,25.55,0,0,1,407.8,303a15.45,15.45,0,0,1-2.17,3.12,20.93,20.93,0,0,1-5.38,4.36A26,26,0,0,1,394,313a63,63,0,0,1-6.56,1.32c-2.16.34-4.38.59-6.49.9a41.93,41.93,0,0,0-6,1.25,23.65,23.65,0,0,0-2.67,1,14.37,14.37,0,0,0-2.48,1.33,13.58,13.58,0,0,0-4,4.19L363.05,327a13.09,13.09,0,0,1,4.21-4,17.14,17.14,0,0,1,5.18-2.19,48.24,48.24,0,0,1,6.05-1c2.09-.27,4.26-.46,6.48-.72a64,64,0,0,0,6.66-1.07,29,29,0,0,0,6.26-2.29c4.07-2,7.45-5.46,9.67-11Z"/><path class="cls-3" d="M312.72,373.74a19.54,19.54,0,0,0-8.48,9.67,39.66,39.66,0,0,0-2,6.14c-.53,2.09-1,4.26-1.42,6.44s-.91,4.36-1.5,6.48a30.55,30.55,0,0,1-2.34,5.88,15.85,15.85,0,0,1-9.83,8.14c-1.84.62-3.75,1-5.62,1.56a15.09,15.09,0,0,0,6.1-3,17.9,17.9,0,0,0,4-4.75c2.1-3.58,3.18-8,4.23-12.23.54-2.12,1-4.34,1.6-6.45a36.33,36.33,0,0,1,2.17-6,22.25,22.25,0,0,1,3.39-5.27,17,17,0,0,1,2.41-2.2,21.17,21.17,0,0,1,3-2C309.85,375.33,311.32,374.59,312.72,373.74Z"/><path class="cls-3" d="M242.38,394.79a21,21,0,0,0-6.63,1.46,23.11,23.11,0,0,0-5.32,3.29,36.61,36.61,0,0,0-4.55,4.52c-.72.83-1.42,1.69-2.13,2.56l-2.09,2.57c-2.78,3.4-5.64,6.89-9.08,9.23a17.83,17.83,0,0,1-5.64,2.56,15.53,15.53,0,0,1-3.25.47,17.82,17.82,0,0,1-3.55-.34l-5.73-1.1a16.7,16.7,0,0,0,9.79-.87,20.38,20.38,0,0,0,2.75-1.51,31.09,31.09,0,0,0,4.91-4c1.54-1.51,3-3.15,4.45-4.88s2.89-3.41,4.38-5a43.64,43.64,0,0,1,4.68-4.36,19.52,19.52,0,0,1,5.42-3.11,27.72,27.72,0,0,1,3.15-.9,17.86,17.86,0,0,1,3.53-.37l2.45,0Z"/><path class="cls-5" d="M377.44,356.49a25.65,25.65,0,0,1-2.92,3,21,21,0,0,1-3.16,2.12,19.41,19.41,0,0,1-6.55,2.22,38.25,38.25,0,0,1-13.32-.95c-4.39-1-8.54-2.07-12.43-2.33a17.41,17.41,0,0,0-5.66.38,14.06,14.06,0,0,0-2.65,1,13.52,13.52,0,0,0-2.61,1.54c-1.32,1-2.6,2-4,2.92A13.71,13.71,0,0,1,329.5,364a15.29,15.29,0,0,1,2.8-.3,21,21,0,0,1,2.85.09,40.16,40.16,0,0,1,6,1.1l3.16.82,3.18.79a62.18,62.18,0,0,0,6.58,1.28c1.12.15,2.24.24,3.37.28a23.16,23.16,0,0,0,3.33-.19,20.94,20.94,0,0,0,6.66-2,22.84,22.84,0,0,0,6.23-5C375,359.54,376.18,358,377.44,356.49Z"/><path class="cls-5" d="M307.83,408.92a19.91,19.91,0,0,1-14.59.83c-4.29-1.47-8-4.16-11.43-6.9s-6.69-5.79-10-7.74a18.78,18.78,0,0,0-5.21-2.25,15.18,15.18,0,0,0-5.81-.15l-4.85.79c4.19-.69,7.65.66,10.92,2.69a42.63,42.63,0,0,1,4.87,3.75l4.9,4.29c3.36,2.89,7,5.78,11.21,7.26a19.54,19.54,0,0,0,6.82,1.27,23.44,23.44,0,0,0,7.82-1.56Z"/><path class="cls-5" d="M362.51,372.64a23.05,23.05,0,0,1-6.66,4.37,19.11,19.11,0,0,1-6.79,1.39,26.15,26.15,0,0,1-6.65-.64,62.37,62.37,0,0,1-6.46-1.87l-6.16-2.12a42.36,42.36,0,0,0-5.92-1.66,19.53,19.53,0,0,0-5.64-.25,13,13,0,0,0-5.51,1.88c-1.4.85-2.87,1.59-4.3,2.38a15.45,15.45,0,0,1,11.21-1.24,52.63,52.63,0,0,1,5.84,1.8c2,.73,4,1.56,6.12,2.35,1,.4,2.1.79,3.17,1.15s2.13.64,3.21.9a29.5,29.5,0,0,0,6.65.88,18.31,18.31,0,0,0,6.8-1.21,19.85,19.85,0,0,0,6.79-4.18Z"/><path class="cls-5" d="M287.19,416.49a19.3,19.3,0,0,1-4.12.83,21.08,21.08,0,0,1-3.8,0,18.1,18.1,0,0,1-6.68-1.83,29.1,29.1,0,0,1-5.63-3.59,58,58,0,0,1-4.91-4.62,102.46,102.46,0,0,0-9-8.87,17.54,17.54,0,0,0-4.9-2.78,13.44,13.44,0,0,0-5.75-.88l-2.46.15-2.45,0a16.13,16.13,0,0,1,3,.27,12.22,12.22,0,0,1,2.71.76,17.7,17.7,0,0,1,4.81,3c3,2.42,5.74,5.79,8.74,9.14A39.06,39.06,0,0,0,267,416.7a20.28,20.28,0,0,0,6.62,2,18.37,18.37,0,0,0,3.8.1,25.19,25.19,0,0,0,4.14-.75C283.44,417.53,285.35,417.11,287.19,416.49Z"/><path class="cls-6" d="M129.34,500.72a4.17,4.17,0,0,0,2.19-.59v2.7a5.1,5.1,0,0,1-3.45,1.18c-3.29,0-5.49-1.77-5.49-6.41V497c-6.07,5.82-11.64,7.26-15.69,7.26a8.3,8.3,0,0,1-8.69-8.61c0-8.6,11.47-13.16,24.38-14.43v-2.86c0-6-2.53-8.44-8.69-8.44-3.54,0-9.28,1.94-13.16,4.22v-4.31c3.12-1.68,9.7-4,13.84-4,7.25,0,12.48,2.86,12.48,12.57v19.32C127.06,499.8,127.82,500.72,129.34,500.72ZM122.59,485c-12.32,1-20.16,5.4-20.16,10.46,0,4,3,5,6.41,5,2.19,0,8.35-2,13.75-7.09Z"/><path class="cls-6" d="M142,467.23l3.71-.76.51,7.43a18.58,18.58,0,0,1,14.67-8c9.71,0,13.17,6.75,13.17,14.93v22.53h-4.48V481.06c0-8-3.88-11-9.19-11-5.74,0-13.92,5-13.92,11.39v21.85H142Z"/><path class="cls-6" d="M224.17,500.72a4.17,4.17,0,0,0,2.19-.59v2.7A5.13,5.13,0,0,1,222.9,504c-3.2,0-5.48-1.69-5.48-6.32-4.13,5.14-9.45,6.66-14.59,6.66-9.54,0-17.22-7.93-17.22-19.23s7.68-19.24,17.22-19.24c5.31,0,10.63,1.69,14.59,6.58V452.3l4.47-.85v46.24C221.89,499.8,222.65,500.72,224.17,500.72Zm-20.5-.33a16.07,16.07,0,0,0,13.75-7.93V477.78a16.05,16.05,0,0,0-13.75-7.94c-7.09,0-13.58,5.23-13.58,15.28S196.58,500.39,203.67,500.39Z"/><path class="cls-6" d="M279.43,451.45c14.85,0,25.9,11.14,25.9,26.58s-11.05,26.57-25.9,26.57-25.9-11.05-25.9-26.57S264.5,451.45,279.43,451.45Zm0,4.31c-12.23,0-21.09,8.94-21.09,22.27s8.86,22.27,21.09,22.27c12.07,0,21.09-8.94,21.09-22.27S291.5,455.76,279.43,455.76Z"/><path class="cls-6" d="M329.8,504.35c-9.7,0-13.16-6.75-13.16-14.93V466.89h4.47v22.27c0,8,3.88,11,9.2,11,5.73,0,13.92-5,13.92-11.39V466.89h4.47v30.8c0,2.11.76,3,2.28,3a4.2,4.2,0,0,0,2.19-.59v2.7a5.13,5.13,0,0,1-3.46,1.18c-3.29,0-5.48-1.77-5.48-6.41v-.84A18.65,18.65,0,0,1,329.8,504.35Z"/><path class="cls-6" d="M365.4,492.29v-21.6h-5.57v-3.8h5.57v-9l4.48-.92v9.95h9.19v3.8h-9.19V493.3c0,4.22,1,7,4.21,7a10,10,0,0,0,5.74-1.69l.84,2.54a9.89,9.89,0,0,1-7.59,3C367.17,504.18,365.4,500.39,365.4,492.29Z"/><path class="cls-6" d="M390.54,452.3l4.48-.85v21c4-4.89,9.28-6.58,14.59-6.58,9.53,0,17.21,7.93,17.21,19.24s-7.68,19.23-17.21,19.23c-5.31,0-10.71-1.6-14.93-7.09l-.85,6.33h-3.29Zm18.23,17.54A16.05,16.05,0,0,0,395,477.78v14.68a16.07,16.07,0,0,0,13.75,7.93c7.08,0,13.58-5.24,13.58-15.27S415.85,469.84,408.77,469.84Z"/><path class="cls-6" d="M438.47,467.23l3.71-.76.5,7.43c2.62-4.14,8.44-8,14-8v5.23c-6.67-1-13.75,4.05-13.75,10.46v21.77h-4.47Z"/><path class="cls-6" d="M480.48,465.8c8.52,0,14.93,5.73,14.93,13.92a32,32,0,0,1-.33,3.71H468c-.67,8.18,3.46,16.87,15.36,16.87a20.33,20.33,0,0,0,10.88-3.8l1.52,2.79c-3.12,2.87-8.44,5-14.59,5-10.13,0-17.64-8.27-17.64-19.49C463.52,473.05,472,465.8,480.48,465.8Zm.25,3.79c-5.56,0-11,3.29-12.4,10.38H491C491.79,474.15,487.4,469.59,480.73,469.59Z"/><path class="cls-6" d="M535.4,500.72a4.21,4.21,0,0,0,2.2-.59v2.7a5.13,5.13,0,0,1-3.46,1.18c-3.29,0-5.49-1.77-5.49-6.41V497c-6.07,5.82-11.64,7.26-15.69,7.26a8.3,8.3,0,0,1-8.69-8.61c0-8.6,11.48-13.16,24.38-14.43v-2.86c0-6-2.53-8.44-8.69-8.44-3.54,0-9.28,1.94-13.16,4.22v-4.31c3.12-1.68,9.71-4,13.84-4,7.25,0,12.49,2.86,12.49,12.57v19.32C533.13,499.8,533.88,500.72,535.4,500.72ZM528.65,485c-12.31,1-20.16,5.4-20.16,10.46,0,4,3,5,6.41,5,2.2,0,8.35-2,13.75-7.09Z"/><path class="cls-6" d="M552.53,451.45v32.48l18.48-17h5.48L558.94,483l17.89,20.33h-5.65l-15.36-17.47-3.29,3v14.43h-4.47v-51Z"/><path class="cls-6" d="M628.21,451.62c6,0,12.57,2,16.62,5.06v4.9a26.19,26.19,0,0,0-16.62-5.66c-12.24,0-21.09,8.86-21.09,22.11s8.85,22.1,21.09,22.1a26.19,26.19,0,0,0,16.62-5.65v4.89c-4.05,3-10.63,5.06-16.62,5.06-14.09,0-25.9-10-25.9-26.4S614.12,451.62,628.21,451.62Z"/><path class="cls-6" d="M673.51,465.71a19.41,19.41,0,1,1-19.4,19.41A19.2,19.2,0,0,1,673.51,465.71Zm0,4.05c-8.69,0-14.93,6.41-14.93,15.36s6.24,15.35,14.93,15.35,14.94-6.41,14.94-15.35S682.2,469.76,673.51,469.76Z"/><path class="cls-6" d="M704.14,467.23l3.71-.76.51,7.43a18.58,18.58,0,0,1,14.68-8c9.7,0,13.16,6.75,13.16,14.93v22.53h-4.47V481.06c0-8-3.88-11-9.2-11-5.74,0-13.92,5-13.92,11.39v21.85h-4.47Z"/><path class="cls-6" d="M751.64,492.29v-21.6h-5.57v-3.8h5.57v-9l4.47-.92v9.95h9.2v3.8h-9.2V493.3c0,4.22,1,7,4.22,7a10,10,0,0,0,5.74-1.69l.84,2.54a9.91,9.91,0,0,1-7.59,3C753.41,504.18,751.64,500.39,751.64,492.29Z"/><path class="cls-6" d="M776.78,467.23l3.71-.76.51,7.43c2.61-4.14,8.44-8,14-8v5.23c-6.66-1-13.75,4.05-13.75,10.46v21.77h-4.47Z"/><path class="cls-6" d="M820.74,465.71a19.41,19.41,0,1,1-19.41,19.41A19.19,19.19,0,0,1,820.74,465.71Zm0,4.05c-8.69,0-14.94,6.41-14.94,15.36s6.25,15.35,14.94,15.35,14.93-6.41,14.93-15.35S829.42,469.76,820.74,469.76Z"/><path class="cls-6" d="M856.85,504c-3.29,0-5.49-1.77-5.49-6.41V452.3l4.47-.85v46.24c0,2.11.76,3,2.28,3a4.17,4.17,0,0,0,2.19-.59v2.7A5.1,5.1,0,0,1,856.85,504Z"/><path class="cls-3" d="M364.33,265.94c-18.75,0-30.72-21.55-31.47-37.69l-4.44,9.32c-.52-.86-1.11.51-1.66-.39-9.78-16.26-21-34.51-43.94-34.64h-.49v0c-7.07.13-13.4,6.12-18.16,13.64,5.05-1.33,11.24-1.82,18.4-1.82,16.26,0,22.52,10.57,33.16,25.58,7.21,10.42,15.58,20.95,25.2,28.24a38.92,38.92,0,0,0,25.4,9.56h15.73V265.94Z"/><path class="cls-3" d="M337.43,213.38l-.16.15.16-.15Z"/><path class="cls-3" d="M122.92,214.69c-27.41.09-35.8,9.48-41,25.66l-1.69,7.78a44.88,44.88,0,0,1-.88-9,47.94,47.94,0,0,1,1-10.08c4-18.53,19.58-26.71,40.92-26.71h23.52v12.32Z"/><path class="cls-3" d="M197.68,202.55v0h-.49c-23,.13-34.16,18.38-43.95,34.64C141.1,257.36,135.38,265.79,120,274.3l1.26,3.44c19,0,32.06-19.09,45-37.79,10.64-15,14.89-25.58,31.15-25.58,7.17,0,13.36.49,18.41,1.82C211.08,208.67,204.75,202.68,197.68,202.55Z"/><path class="cls-5" d="M224.07,219.18c7.38,4.27,11.12,11.34,11.12,21v37.57H223.35V240.2c0-7.14-2.83-16.53-7.51-24A35,35,0,0,1,224.07,219.18Z"/><path class="cls-5" d="M197.68,277.75c-19.78,0-37.57-15.56-37.57-35.33,0-13.62,3.54-22.37,10.67-29h0c-12.19,10.73.77,52.56,26.9,52.56h13.7v11.81Z"/><path class="cls-5" d="M255.94,219.18c-7.38,4.27-11.12,11.34-11.12,21v69.57h11.84V240.2c0-7.14,2.83-16.53,7.51-24A35,35,0,0,0,255.94,219.18Z"/><path class="cls-5" d="M282.33,277.75c19.77,0,37.57-15.56,37.57-35.33,0-13.62-3.54-22.37-10.67-29h0c12.18,10.73-.78,52.56-26.9,52.56H268.58v11.81Z"/><path class="cls-5" d="M327.1,248.13l-.34-7.78c0-22.88,16.25-38,41.39-38h13.91v12.32H369.8c-27.41.09-35.79,9.48-41,25.66l-1.39,7.81Z"/><rect class="cls-5" x="364.33" y="233.72" width="17.73" height="11.84"/><path class="cls-5" d="M121.27,277.74a27.64,27.64,0,0,0,6.79-.85h0c-19.48-4.32-47.7-27.42-47.7-47.81a47.94,47.94,0,0,0-1,10.08,44.88,44.88,0,0,0,.88,9c3.89,19.29,20,29.62,32.34,29.62h8.71Z"/></g></svg>