<svg xmlns="http://www.w3.org/2000/svg" viewBox="0 0 1869.37 557.77"><defs><style>.cls-1{fill:#fff;}.cls-2{fill:#7f1523;}.cls-3{fill:#69798e;}.cls-4{fill:#7f1525;}.cls-5{fill:#6a7a8d;}</style></defs><g id="bg"><rect class="cls-1" x="-2611.4" y="-11.87" width="5144.24" height="581.52"/></g><g id="Layer_1" data-name="Layer 1"><path class="cls-2" d="M1360.53,80c0-16.36,12.32-26.4,26.91-26.4,6.41,0,13.33,2.1,17.55,5.31v7a25.26,25.26,0,0,0-17.55-6.66c-11.64,0-19.91,8.1-19.91,20.75s8.27,20.76,19.91,20.76A25.26,25.26,0,0,0,1405,94.07v7c-4.22,3.21-11.14,5.32-17.55,5.32C1372.85,106.39,1360.53,96.35,1360.53,80Z"/><path class="cls-2" d="M1414.44,86.82c0-11.73,8.69-19,17.63-19,9.11,0,15.52,5.91,15.52,14.18a23.29,23.29,0,0,1-.5,4.13h-26.32c-.51,6.41,2.36,14.93,14.17,14.93a19.08,19.08,0,0,0,11-3.88l2.36,3.55c-3.12,3.2-8.61,5.56-15.52,5.56C1422,106.3,1414.44,98.12,1414.44,86.82Zm27-5.15c.75-4.89-3.13-8.77-9.12-8.77-5.14,0-9.87,2.78-11,8.77Z"/><path class="cls-2" d="M1459.49,69.27l5.57-1.18.42,7.76a17,17,0,0,1,14.17-8c9.71,0,13.17,6.75,13.17,15.78v21.68h-6.42V84.2c0-8.18-3.2-10.88-8.52-10.88s-12,4.55-12,10.46v21.51h-6.41Z"/><path class="cls-2" d="M1507.92,94.41V73.23h-5.57V68.85h5.57V60.16l6.41-1.27v10h9.2v4.38h-9.2V95.08c0,4.22,1,6.16,4.22,6.16a10,10,0,0,0,5.73-1.69l.85,3.38a12.81,12.81,0,0,1-8.69,3.37C1510.53,106.3,1507.92,102.51,1507.92,94.41Z"/><path class="cls-2" d="M1532.81,86.82c0-11.73,8.69-19,17.63-19,9.11,0,15.52,5.91,15.52,14.18a23.29,23.29,0,0,1-.5,4.13h-26.33c-.5,6.41,2.37,14.93,14.18,14.93a19.08,19.08,0,0,0,11-3.88l2.36,3.55c-3.12,3.2-8.61,5.56-15.53,5.56C1540.4,106.3,1532.81,98.12,1532.81,86.82Zm27-5.15c.76-4.89-3.12-8.77-9.11-8.77-5.14,0-9.87,2.78-11,8.77Z"/><path class="cls-2" d="M1577.86,69.27l5.57-1.18.42,7.76c2.36-4.47,8-8,14.17-8v6.92c-6.91-1.26-13.75,2.7-13.75,8.86v21.68h-6.41Z"/><path class="cls-2" d="M1628.39,73.23H1621V68.85h7.42v-.93c0-10.63,4-14.68,11.73-14.68a16.5,16.5,0,0,1,4.56.76v4.55a22.68,22.68,0,0,0-3.88-.5c-4.48,0-6,2-6,9.45v1.35h9.87v4.38h-9.87v32.06h-6.42Z"/><path class="cls-2" d="M1650.08,87.07c0-10.63,8.1-19.57,19.91-19.57a19.32,19.32,0,0,1,19.82,19.57c0,10.71-8.1,19.57-19.82,19.57S1650.08,97.78,1650.08,87.07Zm33.32,0c0-7.93-5.15-14.43-13.41-14.43s-13.5,6.5-13.5,14.43,5.14,14.43,13.5,14.43S1683.4,95.08,1683.4,87.07Z"/><path class="cls-2" d="M1700.7,69.27l5.57-1.18.42,7.76c2.36-4.47,8-8,14.17-8v6.92c-6.92-1.26-13.75,2.7-13.75,8.86v21.68h-6.41Z"/><path class="cls-2" d="M1379.85,143.67h4.38L1406,194.29h-6.92L1393,180.12h-22.27l-6.08,14.17h-6.58Zm10.88,31-8.86-20.83L1373,174.63Z"/><path class="cls-2" d="M1414.61,158.27l5.57-1.18.33,6.91a17.39,17.39,0,0,1,14.26-7.17c10,0,17.38,8.61,17.38,19.24s-7.34,19.23-17.38,19.23A17.64,17.64,0,0,1,1421,189v21.76h-6.41Zm31.13,17.8c0-9-5.65-14.09-12.23-14.09a14.69,14.69,0,0,0-12.49,7.51v13.16a14.69,14.69,0,0,0,12.49,7.51C1440.09,190.16,1445.74,185.1,1445.74,176.07Z"/><path class="cls-2" d="M1463.46,158.27l5.57-1.18.33,6.91a17.39,17.39,0,0,1,14.26-7.17c10,0,17.38,8.61,17.38,19.24s-7.34,19.23-17.38,19.23a17.62,17.62,0,0,1-13.75-6.32v21.76h-6.41Zm31.13,17.8c0-9-5.65-14.09-12.23-14.09a14.69,14.69,0,0,0-12.49,7.51v13.16a14.69,14.69,0,0,0,12.49,7.51C1488.94,190.16,1494.59,185.1,1494.59,176.07Z"/><path class="cls-2" d="M1512.31,187.63v-44l6.41-1.26v45.72c0,2.11.76,3,2.27,3a4.21,4.21,0,0,0,2.2-.59v2.78a6.58,6.58,0,0,1-4.39,1.61C1515,195,1512.31,192.86,1512.31,187.63Z"/><path class="cls-2" d="M1532.72,147.38a3.71,3.71,0,0,1,3.71-3.79,3.8,3.8,0,0,1,3.89,3.79,3.74,3.74,0,0,1-3.89,3.72A3.64,3.64,0,0,1,1532.72,147.38Zm.59,10.55,6.41-1.26v37.62h-6.41Z"/><path class="cls-2" d="M1551.11,175.82c0-11.73,8.69-19,17.64-19,9.11,0,15.52,5.91,15.52,14.18a22.42,22.42,0,0,1-.51,4.13h-26.32c-.5,6.41,2.36,14.93,14.17,14.93a19,19,0,0,0,11-3.88l2.36,3.55c-3.12,3.2-8.6,5.56-15.52,5.56C1558.71,195.3,1551.11,187.12,1551.11,175.82Zm27-5.15c.76-4.89-3.12-8.77-9.11-8.77-5.15,0-9.87,2.78-11,8.77Z"/><path class="cls-2" d="M1594.06,176.07c0-10.63,7.34-19.24,17.38-19.24a17.64,17.64,0,0,1,13.75,6.33V143.67l6.41-1.26v45.72c0,2.11.76,3,2.28,3a4.17,4.17,0,0,0,2.19-.59v2.78a6.42,6.42,0,0,1-4.39,1.61c-3.71,0-5.9-1.86-6.49-6.08a17.59,17.59,0,0,1-13.75,6.41C1601.4,195.3,1594.06,186.7,1594.06,176.07Zm31.13,6.58V169.49A14.7,14.7,0,0,0,1612.7,162c-6.58,0-12.23,5.06-12.23,14.09s5.65,14.09,12.23,14.09A14.7,14.7,0,0,0,1625.19,182.65Z"/><path class="cls-2" d="M1363,232.67h16.7c11.56,0,16.54,7.09,16.54,15.27s-5,15.27-16.54,15.27h-10v20.08H1363Zm16.7,24.89c7.59,0,9.87-5,9.87-9.62s-2.28-9.61-9.87-9.61h-10v19.23Z"/><path class="cls-2" d="M1402.29,275.19c0-8.6,11.14-13.33,23.71-14.42v-2c0-5.06-1.86-7.84-7.34-7.84-3.88,0-10,2.27-13.84,4.8v-5.65c3-1.69,10-4.22,14.51-4.22,7.85,0,13.08,2.87,13.08,12.91v18.39c0,2.11.76,3,2.28,3a4.2,4.2,0,0,0,2.19-.59v2.78a6.33,6.33,0,0,1-4.39,1.61c-3.71,0-5.82-1.86-6.49-6-5,4.55-10.21,6.32-14.51,6.32C1406.34,284.3,1402.29,280.85,1402.29,275.19Zm23.71-1.52v-8.43c-10.55.93-17.55,4.38-17.55,9.19,0,4.22,2.87,5,5.57,5C1416.13,279.41,1421.19,278,1426,273.67Z"/><path class="cls-2" d="M1448.78,272.41V251.23h-5.57v-4.38h5.57v-8.69l6.41-1.27v10h9.19v4.38h-9.19v21.85c0,4.22,1,6.16,4.22,6.16a10,10,0,0,0,5.73-1.69l.85,3.38a12.81,12.81,0,0,1-8.69,3.37C1451.39,284.3,1448.78,280.51,1448.78,272.41Z"/><path class="cls-2" d="M1475.69,232.67l6.41-1.26v21.68c3.12-4,7.85-7.26,13.75-7.26,9.71,0,13.17,6.75,13.17,15.78v21.68h-6.42V262.2c0-8.18-3.2-10.88-8.52-10.88s-12,4.55-12,10.46v21.51h-6.41Z"/><path class="cls-2" d="M1519.82,265.07c0-10.63,8.09-19.57,19.91-19.57a19.32,19.32,0,0,1,19.82,19.57c0,10.71-8.1,19.57-19.82,19.57S1519.82,275.78,1519.82,265.07Zm33.32,0c0-7.93-5.15-14.43-13.41-14.43s-13.5,6.5-13.5,14.43,5.14,14.43,13.5,14.43S1553.14,273.08,1553.14,265.07Z"/><path class="cls-2" d="M1566.64,291.48c0-3.46,3.12-6.16,5.82-6.75l2.28,1c-1,.76-2.87,2-2.87,4.3,0,3.88,5.4,5.82,12.15,5.82,8.1,0,12-2.78,12-6.24,0-3.8-3.55-6-13.08-6-7.34,0-13.67-1.35-13.67-7.17,0-2.11,1.78-5.32,6.33-6.25a12.46,12.46,0,0,1-7-11.21c0-7.51,6.41-13.17,15.18-13.17,4,0,6.08,1,9.62,1h9v4.38h-6.5a11,11,0,0,1,3,7.77c0,7.17-5.91,12.65-13.75,13.07-8.44.51-10.55,1.27-10.55,3.29,0,1.52,1.77,2.45,9.87,2.53,13,.09,17.21,4.9,17.21,10.72,0,6.83-7.25,11.89-17.71,11.89C1573.13,300.5,1566.64,296,1566.64,291.48ZM1593.13,259c0-5.07-3.71-8.86-9.37-8.86s-9.36,3.79-9.36,8.86,3.63,8.85,9.36,8.85S1593.13,264.06,1593.13,259Z"/><path class="cls-2" d="M1610.09,264.82c0-11.73,8.69-19,17.63-19,9.11,0,15.52,5.91,15.52,14.18a23.29,23.29,0,0,1-.5,4.13h-26.32c-.51,6.41,2.36,14.93,14.17,14.93a19.08,19.08,0,0,0,11-3.88l2.36,3.55c-3.12,3.2-8.61,5.56-15.52,5.56C1617.68,284.3,1610.09,276.12,1610.09,264.82Zm27-5.15c.75-4.89-3.13-8.77-9.12-8.77-5.14,0-9.87,2.78-11,8.77Z"/><path class="cls-2" d="M1655.14,247.27l5.57-1.18.42,7.76a17,17,0,0,1,14.17-8c9.71,0,13.17,6.75,13.17,15.78v21.68h-6.42V262.2c0-8.18-3.2-10.88-8.52-10.88s-12,4.55-12,10.46v21.51h-6.41Z"/><path class="cls-2" d="M1363,321.67h30.62v5.65h-23.88v15.44h19.66v5.66h-19.66v18.22h23.88v5.65H1363Z"/><path class="cls-2" d="M1402.54,336.27l5.57-1.18.34,6.91a17.39,17.39,0,0,1,14.26-7.17c10,0,17.38,8.61,17.38,19.24s-7.34,19.24-17.38,19.24A17.65,17.65,0,0,1,1409,367v21.76h-6.41Zm31.13,17.8c0-9-5.65-14.09-12.23-14.09a14.72,14.72,0,0,0-12.49,7.51v13.16a14.72,14.72,0,0,0,12.49,7.51C1428,368.16,1433.67,363.1,1433.67,354.07Z"/><path class="cls-2" d="M1447.85,325.39a3.71,3.71,0,0,1,3.71-3.8,3.8,3.8,0,0,1,3.88,3.8,3.74,3.74,0,0,1-3.88,3.71A3.64,3.64,0,0,1,1447.85,325.39Zm.59,10.54,6.41-1.27v37.63h-6.41Z"/><path class="cls-2" d="M1463.2,354.07c0-10.63,7.34-19.24,17.38-19.24a17.63,17.63,0,0,1,13.75,6.33V321.67l6.42-1.26v45.72c0,2.11.76,3,2.27,3a4.21,4.21,0,0,0,2.2-.59v2.78a6.44,6.44,0,0,1-4.39,1.61c-3.71,0-5.91-1.86-6.5-6.08a17.58,17.58,0,0,1-13.75,6.42C1470.54,373.31,1463.2,364.7,1463.2,354.07Zm31.13,6.58V347.49a14.69,14.69,0,0,0-12.48-7.51c-6.58,0-12.24,5.06-12.24,14.09s5.66,14.09,12.24,14.09A14.69,14.69,0,0,0,1494.33,360.65Z"/><path class="cls-2" d="M1510.45,353.81c0-11.72,8.69-19,17.63-19,9.11,0,15.52,5.91,15.52,14.18a23.29,23.29,0,0,1-.5,4.13h-26.32c-.51,6.41,2.36,14.93,14.17,14.93a19.08,19.08,0,0,0,11-3.88l2.36,3.55c-3.12,3.2-8.61,5.57-15.52,5.57C1518,373.31,1510.45,365.12,1510.45,353.81Zm27-5.14c.75-4.89-3.13-8.77-9.12-8.77-5.14,0-9.87,2.78-11,8.77Z"/><path class="cls-2" d="M1552.55,336.27l5.57-1.18.42,7.76c3-4.64,7.68-8,13.41-8,6.84,0,10.13,3.29,11.56,8.36,4-5.57,8.86-8.36,13.92-8.36,9.7,0,12.32,6.75,12.32,15.78v21.68h-6.41V351.12c0-8-2.45-10.8-7.77-10.8s-11.22,4.55-11.22,10.46v21.51h-6.41V351.12c0-8-2.45-10.8-7.76-10.8S1559,344.87,1559,350.78v21.51h-6.41Z"/><path class="cls-2" d="M1619.54,325.39a3.71,3.71,0,0,1,3.71-3.8,3.8,3.8,0,0,1,3.88,3.8,3.74,3.74,0,0,1-3.88,3.71A3.64,3.64,0,0,1,1619.54,325.39Zm.59,10.54,6.41-1.27v37.63h-6.41Z"/><path class="cls-2" d="M1634.47,354.07c0-10.63,8.1-19.57,19.91-19.57a19.33,19.33,0,0,1,19.83,19.57c0,10.71-8.1,19.57-19.83,19.57S1634.47,364.78,1634.47,354.07Zm33.32,0c0-7.93-5.14-14.43-13.41-14.43s-13.5,6.5-13.5,14.43,5.15,14.42,13.5,14.42S1667.79,362.08,1667.79,354.07Z"/><path class="cls-2" d="M1682.14,365.63v-44l6.41-1.26v45.72c0,2.11.76,3,2.28,3a4.17,4.17,0,0,0,2.19-.59v2.78a6.58,6.58,0,0,1-4.39,1.61C1684.84,373,1682.14,370.86,1682.14,365.63Z"/><path class="cls-2" d="M1697.66,354.07c0-10.63,8.1-19.57,19.91-19.57a19.33,19.33,0,0,1,19.83,19.57c0,10.71-8.1,19.57-19.83,19.57S1697.66,364.78,1697.66,354.07Zm33.32,0c0-7.93-5.14-14.43-13.41-14.43s-13.5,6.5-13.5,14.43,5.15,14.42,13.5,14.42S1731,362.08,1731,354.07Z"/><path class="cls-2" d="M1741.53,380.48c0-3.46,3.12-6.16,5.82-6.75l2.28,1c-1,.76-2.87,2-2.87,4.3,0,3.88,5.4,5.82,12.15,5.82,8.1,0,12-2.78,12-6.24,0-3.8-3.54-6-13.08-6-7.34,0-13.66-1.35-13.66-7.17,0-2.11,1.77-5.32,6.32-6.24a12.49,12.49,0,0,1-7-11.23c0-7.5,6.41-13.16,15.19-13.16,4,0,6.07,1,9.62,1h9v4.38h-6.49a11,11,0,0,1,3,7.76c0,7.18-5.9,12.66-13.75,13.08-8.43.51-10.54,1.27-10.54,3.29,0,1.52,1.77,2.45,9.87,2.53,13,.09,17.21,4.9,17.21,10.72,0,6.83-7.26,11.89-17.72,11.89C1748,389.5,1741.53,385,1741.53,380.48ZM1768,348c0-5.06-3.71-8.85-9.36-8.85s-9.37,3.79-9.37,8.85,3.63,8.86,9.37,8.86S1768,353.06,1768,348Z"/><path class="cls-2" d="M1783.12,388.49v-4.3a10.56,10.56,0,0,0,2.7.59c4.22,0,5.83-4.13,9.2-12.91l-15.19-36h6.58l12,28.93L1810,335.85h6.25l-18.4,43.36c-3.12,7.34-6.15,10.29-10.63,10.29A8.08,8.08,0,0,1,1783.12,388.49Z"/><path class="cls-3" d="M1239.79,319.77c-78.58,0-128.73-90.32-131.88-157.93l-18.57,39c-2.18-3.59-4.68,2.15-7-1.64-41-68.15-87.87-144.6-184.13-145.15v0h-2v.06c-29.63.55-56.16,25.67-76.09,57.17,21.15-5.57,47.09-7.64,77.12-7.64,68.12,0,94.33,44.3,138.9,107.18,30.24,43.67,65.29,87.81,105.61,118.36a163.24,163.24,0,0,0,106.43,40h65.92V319.77Z"/><path class="cls-3" d="M1127.07,99.51c-.23.21-.43.43-.66.65.23-.21.44-.44.67-.64Z"/><path class="cls-3" d="M228.27,105c-114.87.39-150,39.72-171.83,107.52l-7.11,32.61a189,189,0,0,1-3.67-37.6,200,200,0,0,1,4.23-42.23c16.75-77.63,82-111.9,171.45-111.9h98.54V105Z"/><path class="cls-3" d="M541.5,54.13v-.06h-2v0c-96.26.55-143.14,77-184.13,145.15-50.87,84.55-74.85,119.89-139.24,155.53l5.26,14.4c79.43,0,134.33-80,188.6-158.34C454.52,148,472.35,103.66,540.47,103.66c30,0,56,2.07,77.12,7.64C597.66,79.8,571.12,54.68,541.5,54.13Z"/><path class="cls-4" d="M652.08,123.84c30.92,17.89,46.6,47.49,46.6,88V369.22H649.06V211.89c0-29.89-11.86-69.24-31.47-100.58C630.41,114.78,642.37,118.22,652.08,123.84Z"/><path class="cls-4" d="M541.5,369.22c-82.86,0-157.41-65.17-157.41-148,0-57.06,14.83-93.73,44.69-121.71h0c-51.06,45,3.25,220.25,112.71,220.25h57.43v49.45Z"/><path class="cls-4" d="M785.62,123.84c-30.93,17.89-46.61,47.49-46.61,88V503.34h49.63V211.89c0-29.89,11.86-69.24,31.47-100.58C807.29,114.78,795.33,118.22,785.62,123.84Z"/><path class="cls-4" d="M896.2,369.22c82.85,0,157.41-65.17,157.41-148,0-57.06-14.83-93.73-44.69-121.71h0c51.06,45-3.24,220.25-112.7,220.25H838.59v49.45Z"/><path class="cls-4" d="M1083.78,245.14l-1.4-32.61c0-95.87,68.07-159.12,173.42-159.12h58.29V105h-51.36c-114.88.39-150,39.72-171.83,107.52l-5.79,32.72Z"/><rect class="cls-4" x="1239.79" y="184.74" width="74.3" height="49.63"/><path class="cls-4" d="M221.34,369.18a116.09,116.09,0,0,0,28.45-3.53h0C168.13,347.54,49.89,250.73,49.89,165.31a200,200,0,0,0-4.23,42.23,189,189,0,0,0,3.67,37.6C65.65,326,133.25,369.22,184.87,369.22h36.47Z"/><path class="cls-5" d="M1033.57,458.68a4.2,4.2,0,0,0,2.19-.6v2.71a5.18,5.18,0,0,1-3.46,1.18c-3.29,0-5.48-1.78-5.48-6.42V455c-6.08,5.83-11.65,7.26-15.7,7.26a8.3,8.3,0,0,1-8.68-8.61c0-8.6,11.47-13.16,24.38-14.42v-2.87c0-6-2.53-8.44-8.69-8.44-3.55,0-9.28,1.94-13.16,4.22v-4.3c3.12-1.69,9.7-4.05,13.83-4.05,7.26,0,12.49,2.87,12.49,12.57v19.32C1031.29,457.75,1032.05,458.68,1033.57,458.68Zm-6.75-15.7c-12.32,1-20.17,5.4-20.17,10.47,0,4,3,5,6.42,5,2.19,0,8.35-2,13.75-7.08Z"/><path class="cls-5" d="M1046.22,425.18l3.71-.76.51,7.43a18.58,18.58,0,0,1,14.68-8c9.7,0,13.16,6.75,13.16,14.94v22.52h-4.47V439c0-8-3.88-11-9.2-11-5.73,0-13.92,5-13.92,11.39v21.85h-4.47Z"/><path class="cls-5" d="M1128.4,458.68a4.2,4.2,0,0,0,2.19-.6v2.71a5.18,5.18,0,0,1-3.46,1.18c-3.21,0-5.48-1.69-5.48-6.33-4.14,5.15-9.45,6.66-14.6,6.66-9.53,0-17.21-7.93-17.21-19.23s7.68-19.24,17.21-19.24c5.32,0,10.63,1.69,14.6,6.58V410.25l4.47-.84v46.23C1126.12,457.75,1126.88,458.68,1128.4,458.68Zm-20.51-.34a16.06,16.06,0,0,0,13.76-7.93V435.73a16.06,16.06,0,0,0-13.76-7.93c-7.08,0-13.58,5.23-13.58,15.27S1100.81,458.34,1107.89,458.34Z"/><path class="cls-5" d="M1183.66,409.41c14.85,0,25.9,11.13,25.9,26.57s-11,26.58-25.9,26.58-25.9-11.06-25.9-26.58S1168.72,409.41,1183.66,409.41Zm0,4.3c-12.24,0-21.09,8.94-21.09,22.27s8.85,22.27,21.09,22.27c12.06,0,21.09-8.94,21.09-22.27S1195.72,413.71,1183.66,413.71Z"/><path class="cls-5" d="M1234,462.3c-9.71,0-13.17-6.75-13.17-14.93V424.84h4.47v22.28c0,8,3.89,11,9.2,11,5.74,0,13.92-5,13.92-11.38V424.84h4.47v30.8c0,2.11.76,3,2.28,3a4.17,4.17,0,0,0,2.19-.6v2.71a5.17,5.17,0,0,1-3.45,1.18c-3.29,0-5.49-1.78-5.49-6.42v-.84A18.6,18.6,0,0,1,1234,462.3Z"/><path class="cls-5" d="M1269.63,450.24v-21.6h-5.57v-3.8h5.57v-9l4.47-.93v9.95h9.2v3.8h-9.2v22.61c0,4.22,1,7,4.22,7a10.11,10.11,0,0,0,5.74-1.68l.84,2.53a9.91,9.91,0,0,1-7.59,3C1271.4,462.14,1269.63,458.34,1269.63,450.24Z"/><path class="cls-5" d="M1294.77,410.25l4.47-.84v21c4-4.89,9.28-6.58,14.6-6.58,9.53,0,17.21,7.93,17.21,19.24s-7.68,19.23-17.21,19.23c-5.32,0-10.72-1.6-14.94-7.08l-.84,6.32h-3.29ZM1313,427.8a16.06,16.06,0,0,0-13.75,7.93v14.68a16.06,16.06,0,0,0,13.75,7.93c7.09,0,13.59-5.23,13.59-15.27S1320.08,427.8,1313,427.8Z"/><path class="cls-5" d="M1342.69,425.18l3.71-.76.51,7.43c2.62-4.14,8.44-8,14-8v5.23c-6.66-1-13.75,4.05-13.75,10.46v21.77h-4.47Z"/><path class="cls-5" d="M1384.71,423.75c8.52,0,14.93,5.73,14.93,13.92a30.07,30.07,0,0,1-.34,3.71h-27.08c-.68,8.18,3.46,16.87,15.35,16.87a20.36,20.36,0,0,0,10.89-3.79l1.52,2.78c-3.13,2.87-8.44,5-14.6,5-10.12,0-17.63-8.27-17.63-19.49C1367.75,431,1376.27,423.75,1384.71,423.75Zm.25,3.8c-5.57,0-11,3.28-12.4,10.37h22.69C1396,432.1,1391.62,427.55,1385,427.55Z"/><path class="cls-5" d="M1439.63,458.68a4.17,4.17,0,0,0,2.19-.6v2.71a5.18,5.18,0,0,1-3.46,1.18c-3.29,0-5.48-1.78-5.48-6.42V455c-6.07,5.83-11.64,7.26-15.69,7.26a8.3,8.3,0,0,1-8.69-8.61c0-8.6,11.47-13.16,24.38-14.42v-2.87c0-6-2.53-8.44-8.69-8.44-3.54,0-9.28,1.94-13.16,4.22v-4.3c3.12-1.69,9.7-4.05,13.83-4.05,7.26,0,12.49,2.87,12.49,12.57v19.32C1437.35,457.75,1438.11,458.68,1439.63,458.68Zm-6.75-15.7c-12.32,1-20.16,5.4-20.16,10.47,0,4,3,5,6.41,5,2.19,0,8.35-2,13.75-7.08Z"/><path class="cls-5" d="M1456.76,409.41v32.48l18.47-17.05h5.49L1463.17,441l17.88,20.33h-5.65l-15.35-17.46-3.29,3v14.43h-4.48v-51Z"/><path class="cls-5" d="M1532.43,409.57c6,0,12.57,2,16.62,5.07v4.89a26.17,26.17,0,0,0-16.62-5.65c-12.23,0-21.09,8.85-21.09,22.1s8.86,22.1,21.09,22.1a26.17,26.17,0,0,0,16.62-5.65v4.9c-4,3-10.63,5.06-16.62,5.06-14.09,0-25.9-10-25.9-26.41S1518.34,409.57,1532.43,409.57Z"/><path class="cls-5" d="M1577.74,423.66a19.41,19.41,0,1,1-19.41,19.41A19.19,19.19,0,0,1,1577.74,423.66Zm0,4c-8.69,0-14.93,6.42-14.93,15.36s6.24,15.35,14.93,15.35,14.93-6.41,14.93-15.35S1586.43,427.71,1577.74,427.71Z"/><path class="cls-5" d="M1608.36,425.18l3.72-.76.5,7.43a18.58,18.58,0,0,1,14.68-8c9.7,0,13.16,6.75,13.16,14.94v22.52H1636V439c0-8-3.88-11-9.19-11-5.74,0-13.92,5-13.92,11.39v21.85h-4.48Z"/><path class="cls-5" d="M1655.86,450.24v-21.6h-5.56v-3.8h5.56v-9l4.48-.93v9.95h9.19v3.8h-9.19v22.61c0,4.22,1,7,4.21,7a10.11,10.11,0,0,0,5.74-1.68l.84,2.53a9.9,9.9,0,0,1-7.59,3C1657.64,462.14,1655.86,458.34,1655.86,450.24Z"/><path class="cls-5" d="M1681,425.18l3.71-.76.5,7.43c2.62-4.14,8.44-8,14-8v5.23c-6.67-1-13.75,4.05-13.75,10.46v21.77H1681Z"/><path class="cls-5" d="M1725,423.66a19.41,19.41,0,1,1-19.4,19.41A19.19,19.19,0,0,1,1725,423.66Zm0,4c-8.69,0-14.93,6.42-14.93,15.36s6.24,15.35,14.93,15.35,14.93-6.41,14.93-15.35S1733.65,427.71,1725,427.71Z"/><path class="cls-5" d="M1761.07,462c-3.29,0-5.48-1.78-5.48-6.42v-45.3l4.47-.84v46.23c0,2.11.76,3,2.28,3a4.17,4.17,0,0,0,2.19-.6v2.71A5.18,5.18,0,0,1,1761.07,462Z"/></g></svg>