<?xml version="1.0" encoding="UTF-8" standalone="no"?>
<svg
   viewBox="0 0 1372.75 557.77"
   version="1.1"
   id="svg10"
   sodipodi:docname="wordmark-color.svg"
   inkscape:version="1.3.2 (091e20e, 2023-11-25)"
   xmlns:inkscape="http://www.inkscape.org/namespaces/inkscape"
   xmlns:sodipodi="http://sodipodi.sourceforge.net/DTD/sodipodi-0.dtd"
   xmlns="http://www.w3.org/2000/svg"
   xmlns:svg="http://www.w3.org/2000/svg">
  <sodipodi:namedview
     id="namedview10"
     pagecolor="#ffffff"
     bordercolor="#111111"
     borderopacity="1"
     inkscape:showpageshadow="0"
     inkscape:pageopacity="0"
     inkscape:pagecheckerboard="1"
     inkscape:deskcolor="#d1d1d1"
     inkscape:zoom="0.31542524"
     inkscape:cx="686.375"
     inkscape:cy="278.98845"
     inkscape:window-width="1248"
     inkscape:window-height="408"
     inkscape:window-x="0"
     inkscape:window-y="25"
     inkscape:window-maximized="0"
     inkscape:current-layer="svg10" />
  <defs
     id="defs1">
    <style
       id="style1">.cls-1{fill:#fff;}.cls-2{fill:#69798e;}.cls-3{fill:#7f1525;}</style>
  </defs>
  <g
     id="bg" />
  <g
     id="Layer_1"
     data-name="Layer 1">
    <path
       class="cls-2"
       d="M1244,319.77c-78.57,0-128.72-90.32-131.87-157.93l-18.57,39c-2.18-3.59-4.69,2.15-7-1.64-41-68.15-87.87-144.6-184.13-145.15v0h-2.06v.06c-29.62.55-56.15,25.67-76.08,57.17,21.14-5.57,47.08-7.64,77.11-7.64,68.13,0,94.34,44.3,138.91,107.18,30.24,43.67,65.28,87.81,105.61,118.36a163.22,163.22,0,0,0,106.42,40h65.93V319.77Z"
       id="path1" />
    <path
       class="cls-2"
       d="M1131.3,99.51c-.23.21-.44.43-.66.65.22-.21.44-.44.67-.64Z"
       id="path2" />
    <path
       class="cls-2"
       d="M232.5,105c-114.88.39-150,39.72-171.83,107.52l-7.12,32.61a189.72,189.72,0,0,1-3.66-37.6,200.69,200.69,0,0,1,4.22-42.23c16.76-77.63,82-111.9,171.46-111.9H324.1V105Z"
       id="path3" />
    <path
       class="cls-2"
       d="M545.73,54.13v-.06h-2.06v0c-96.26.55-143.13,77-184.12,145.15C308.68,283.8,284.7,319.14,220.3,354.78l5.27,14.4c79.43,0,134.33-80,188.6-158.34C458.74,148,476.57,103.66,544.7,103.66c30,0,56,2.07,77.11,7.64C601.88,79.8,575.35,54.68,545.73,54.13Z"
       id="path4" />
    <path
       class="cls-3"
       d="M656.31,123.84c30.92,17.89,46.6,47.49,46.6,88V369.22H653.29V211.89c0-29.89-11.87-69.24-31.48-100.58C634.64,114.78,646.6,118.22,656.31,123.84Z"
       id="path5" />
    <path
       class="cls-3"
       d="M545.72,369.22c-82.85,0-157.4-65.17-157.4-148,0-57.06,14.82-93.73,44.69-121.71h0c-51.06,45,3.25,220.25,112.7,220.25h57.44v49.45Z"
       id="path6" />
    <path
       class="cls-3"
       d="M789.84,123.84c-30.92,17.89-46.6,47.49-46.6,88V503.34h49.62V211.89c0-29.89,11.87-69.24,31.48-100.58C811.52,114.78,799.55,118.22,789.84,123.84Z"
       id="path7" />
    <path
       class="cls-3"
       d="M900.43,369.22c82.85,0,157.41-65.17,157.41-148,0-57.06-14.83-93.73-44.7-121.71h0c51.06,45-3.25,220.25-112.7,220.25H842.82v49.45Z"
       id="path8" />
    <path
       class="cls-3"
       d="M1088,245.14l-1.39-32.61c0-95.87,68.07-159.12,173.41-159.12h58.3V105H1267c-114.87.39-150,39.72-171.83,107.52l-5.78,32.72Z"
       id="path9" />
    <rect
       class="cls-3"
       x="1244.01"
       y="184.74"
       width="74.3"
       height="49.63"
       id="rect9" />
    <path
       class="cls-3"
       d="M225.57,369.18A116,116,0,0,0,254,365.65h0C172.36,347.54,54.11,250.73,54.11,165.31a200.69,200.69,0,0,0-4.22,42.23,189.72,189.72,0,0,0,3.66,37.6C69.88,326,137.47,369.22,189.09,369.22h36.48Z"
       id="path10" />
  </g>
</svg>
